<svg width="640" height="480" xmlns="http://www.w3.org/2000/svg" xmlns:xlink="http://www.w3.org/1999/xlink">
 <!-- Created with SVG-edit - http://svg-edit.googlecode.com/ -->
 <defs>
  <radialGradient r="1.433511" fy="0.658919" fx="0.819271" spreadMethod="repeat" id="svg_2">
   <stop offset="0" stop-opacity="0.992188" stop-color="#ffffff"/>
   <stop offset="1" stop-opacity="0.996094" stop-color="#76b4f2"/>
  </radialGradient>
  <radialGradient cy="0.5" cx="0.5" r="1.433511" fy="0.658919" fx="0.819271" spreadMethod="repeat" id="svg_5">
   <stop offset="0" stop-opacity="0.992188" stop-color="#ffffff"/>
   <stop offset="1" stop-opacity="0.992188" stop-color="#75ef89"/>
  </radialGradient>
  <radialGradient cy="0.5" cx="0.5" r="1.433511" fy="0.658919" fx="0.819271" spreadMethod="repeat" id="svg_7">
   <stop offset="0" stop-opacity="0.992188" stop-color="#ffffff"/>
   <stop offset="1" stop-opacity="0.988281" stop-color="#ffcb63"/>
  </radialGradient>
  <radialGradient cy="0.5" cx="0.5" r="1.433511" fy="0.658919" fx="0.819271" spreadMethod="repeat" id="svg_18">
   <stop offset="0" stop-opacity="0.992188" stop-color="#ffffff"/>
   <stop offset="1" stop-opacity="0.996094" stop-color="#5fbf00"/>
  </radialGradient>
  <radialGradient cy="0.5" cx="0.5" r="1.433511" fy="0.658919" fx="0.819271" spreadMethod="repeat" id="svg_19">
   <stop offset="0" stop-opacity="0.992188" stop-color="#ffffff"/>
   <stop offset="1" stop-opacity="0.996094" stop-color="#ff5656"/>
  </radialGradient>
  <radialGradient cy="0.5" cx="0.5" r="1.433511" fy="0.658919" fx="0.819271" spreadMethod="repeat" id="svg_20">
   <stop offset="0" stop-opacity="0.992188" stop-color="#ffffff"/>
   <stop offset="1" stop-opacity="0.988281" stop-color="#00a018"/>
  </radialGradient>
  <radialGradient cy="0.5" cx="0.5" r="1.433511" fy="0.658919" fx="0.819271" spreadMethod="repeat" id="svg_23">
   <stop offset="0" stop-opacity="0.992188" stop-color="#ffffff"/>
   <stop offset="1" stop-opacity="0.984375" stop-color="#4f4f4f"/>
  </radialGradient>
  <radialGradient cy="0.5" cx="0.5" r="1.433511" fy="0.658919" fx="0.819271" spreadMethod="repeat" id="svg_24">
   <stop offset="0" stop-opacity="0.992188" stop-color="#ffffff"/>
   <stop offset="1" stop-opacity="0.984375" stop-color="#ff815f"/>
  </radialGradient>
  <radialGradient cy="0.5" cx="0.5" r="1.433511" fy="0.658919" fx="0.819271" spreadMethod="repeat" id="svg_25">
   <stop offset="0" stop-opacity="0.992188" stop-color="#ffffff"/>
   <stop offset="1" stop-opacity="0.996094" stop-color="#aa56ff"/>
  </radialGradient>
  <radialGradient cy="0.5" cx="0.5" r="1.433511" fy="0.658919" fx="0.819271" spreadMethod="repeat" id="svg_57">
   <stop offset="0" stop-opacity="0.992188" stop-color="#ffffff"/>
   <stop offset="1" stop-opacity="0.992188" stop-color="#007fff"/>
  </radialGradient>
  <radialGradient cy="0.5" cx="0.5" r="1.433511" fy="0.658919" fx="0.819271" spreadMethod="repeat" id="svg_59">
   <stop offset="0" stop-opacity="0.992188" stop-color="#ffffff"/>
   <stop offset="1" stop-opacity="0.992188" stop-color="#ff0000"/>
  </radialGradient>
  <filter id="svg_66_blur">
   <feGaussianBlur stdDeviation="2.1" in="SourceGraphic"/>
  </filter>
 </defs>
 <g>
  <title>Layer 1</title>
  <ellipse id="svg_67" ry="78.499996" rx="78.499996" cy="134.277787" cx="-6.722228" stroke-width="0" stroke="#448cff" fill="url(#svg_2)"/>
  <rect id="svg_61" height="478.222226" width="640.000005" y="-14.844437" x="-16.777822" stroke-width="0" stroke="#448cff" fill="#e8e3e3"/>
  <ellipse ry="65.5" rx="65.5" id="svg_1" cy="187.277777" cx="298.277773" stroke-width="0" stroke="#448cff" fill="url(#svg_7)"/>
  <ellipse id="svg_3" ry="78.499996" rx="78.499996" cy="-20.722213" cx="160.277772" stroke-width="0" stroke="#448cff" fill="url(#svg_2)"/>
  <ellipse transform="rotate(59.9558, 474.754, 169.189)" id="svg_4" ry="80.144105" rx="80.144105" cy="169.189099" cx="474.753505" stroke-width="0" stroke="#448cff" fill="url(#svg_5)"/>
  <ellipse id="svg_8" transform="rotate(59.9558, 481.754, 381.189)" ry="80.144105" rx="80.144105" cy="381.189099" cx="481.753505" stroke-width="0" stroke="#448cff" fill="url(#svg_5)"/>
  <ellipse id="svg_9" transform="rotate(107.305, 90.7539, 194.189)" ry="80.144105" rx="80.144105" cy="194.189099" cx="90.753505" stroke-width="0" stroke="#448cff" fill="url(#svg_5)"/>
  <ellipse id="svg_10" ry="78.499996" rx="78.499996" cy="50.277787" cx="489.277772" stroke-width="0" stroke="#448cff" fill="url(#svg_2)"/>
  <ellipse id="svg_11" ry="78.499996" rx="78.499996" cy="369.277787" cx="80.277772" stroke-width="0" stroke="#448cff" fill="url(#svg_2)"/>
  <ellipse id="svg_12" ry="65.5" rx="65.5" cy="354.277777" cx="231.277773" stroke-width="0" stroke="#448cff" fill="url(#svg_7)"/>
  <ellipse id="svg_13" ry="65.5" rx="65.5" cy="110.277777" cx="270.277773" stroke-width="0" stroke="#448cff" fill="url(#svg_25)"/>
  <ellipse id="svg_14" ry="65.5" rx="65.5" cy="263.277777" cx="99.277773" stroke-width="0" stroke="#448cff" fill="url(#svg_7)"/>
  <ellipse id="svg_15" transform="rotate(107.305, 455.754, 89.1879)" ry="80.144105" rx="80.144105" cy="89.189099" cx="455.753505" stroke-width="0" stroke="#448cff" fill="url(#svg_20)"/>
  <ellipse id="svg_16" transform="rotate(107.305, 211.754, 482.188)" ry="80.144105" rx="80.144105" cy="482.189099" cx="211.753505" stroke-width="0" stroke="#448cff" fill="url(#svg_19)"/>
  <ellipse id="svg_17" transform="rotate(107.305, 390.754, 428.188)" ry="80.144105" rx="80.144105" cy="428.189099" cx="390.753505" stroke-width="0" stroke="#448cff" fill="url(#svg_18)"/>
  <ellipse id="svg_21" ry="65.5" rx="65.5" cy="261.277777" cx="297.277773" stroke-width="0" stroke="#448cff" fill="url(#svg_24)"/>
  <ellipse id="svg_22" ry="65.5" rx="65.5" cy="236.277777" cx="562.277773" stroke-width="0" stroke="#448cff" fill="url(#svg_23)"/>
  <ellipse id="svg_26" ry="65.5" rx="65.5" cy="94.277777" cx="388.277773" stroke-width="0" stroke="#448cff" fill="url(#svg_25)"/>
  <ellipse id="svg_27" ry="65.5" rx="65.5" cy="481.277777" cx="481.277773" stroke-width="0" stroke="#448cff" fill="url(#svg_25)"/>
  <ellipse id="svg_28" ry="65.5" rx="65.5" cy="225.277777" cx="585.277773" stroke-width="0" stroke="#448cff" fill="url(#svg_25)"/>
  <ellipse id="svg_29" transform="rotate(107.305, 134.754, 80.1895)" ry="80.144105" rx="80.144105" cy="80.189099" cx="134.753505" stroke-width="0" stroke="#448cff" fill="url(#svg_5)"/>
  <ellipse id="svg_30" transform="rotate(107.305, 234.755, 242.188)" ry="80.144105" rx="80.144105" cy="242.189099" cx="234.753505" stroke-width="0" stroke="#448cff" fill="url(#svg_5)"/>
  <ellipse id="svg_31" ry="65.5" rx="65.5" cy="200.277777" cx="407.277773" stroke-width="0" stroke="#448cff" fill="url(#svg_7)"/>
  <ellipse id="svg_32" ry="65.5" rx="65.5" cy="251.277777" cx="6.277773" stroke-width="0" stroke="#448cff" fill="url(#svg_7)"/>
  <ellipse id="svg_33" ry="99.999996" rx="101.499996" cy="464.777907" cx="69.277899" stroke-width="0" stroke="#448cff" fill="url(#svg_2)"/>
  <ellipse id="svg_34" ry="78.499996" rx="78.499996" cy="488.277787" cx="309.277772" stroke-width="0" stroke="#448cff" fill="url(#svg_2)"/>
  <ellipse id="svg_35" ry="65.5" rx="65.5" cy="433.277777" cx="608.277773" stroke-width="0" stroke="#448cff" fill="url(#svg_23)"/>
  <ellipse id="svg_36" ry="65.5" rx="65.5" cy="276.277777" cx="602.277773" stroke-width="0" stroke="#448cff" fill="url(#svg_23)"/>
  <ellipse id="svg_37" transform="rotate(107.305, 475.755, 109.188)" ry="80.144105" rx="80.144105" cy="109.189099" cx="475.753505" stroke-width="0" stroke="#448cff" fill="url(#svg_20)"/>
  <ellipse id="svg_38" transform="rotate(107.305, 560.755, 441.188)" ry="80.144105" rx="80.144105" cy="441.189099" cx="560.753505" stroke-width="0" stroke="#448cff" fill="url(#svg_20)"/>
  <ellipse opacity="0.55" id="svg_39" transform="rotate(107.305, 165.754, 423.189)" ry="80.144105" rx="80.144105" cy="423.189099" cx="165.753505" stroke-width="0" stroke="#448cff" fill="url(#svg_19)"/>
  <ellipse id="svg_40" transform="rotate(107.305, 428.755, 8.18775)" ry="80.144105" rx="80.144105" cy="8.189099" cx="428.753505" stroke-width="0" stroke="#448cff" fill="url(#svg_19)"/>
  <ellipse id="svg_41" transform="rotate(107.305, 44.7539, 18.1895)" ry="80.144105" rx="80.144105" cy="18.189099" cx="44.753505" stroke-width="0" stroke="#448cff" fill="url(#svg_19)"/>
  <ellipse id="svg_42" transform="rotate(107.305, 608.255, 30.1872)" ry="90.279144" rx="87.460479" cy="30.188514" cx="608.253968" stroke-width="0" stroke="#448cff" fill="url(#svg_19)"/>
  <ellipse id="svg_43" transform="rotate(107.305, 163.754, 170.189)" ry="80.144105" rx="80.144105" cy="170.189099" cx="163.753505" stroke-width="0" stroke="#448cff" fill="url(#svg_59)"/>
  <ellipse id="svg_44" transform="rotate(107.305, 438.755, 280.188)" ry="80.144105" rx="80.144105" cy="280.189099" cx="438.753505" stroke-width="0" stroke="#448cff" fill="url(#svg_19)"/>
  <ellipse id="svg_45" ry="65.5" rx="65.5" cy="130.277777" cx="290.277773" stroke-width="0" stroke="#448cff" fill="url(#svg_25)"/>
  <ellipse id="svg_46" ry="65.5" rx="65.5" cy="137.277777" cx="601.277773" stroke-width="0" stroke="#448cff" fill="url(#svg_25)"/>
  <ellipse id="svg_47" ry="65.5" rx="65.5" cy="321.277777" cx="192.277773" stroke-width="0" stroke="#448cff" fill="url(#svg_25)"/>
  <ellipse opacity="0.5" id="svg_48" transform="rotate(107.305, 281.754, 381.189)" ry="80.144105" rx="80.144105" cy="381.189099" cx="281.753505" stroke-width="0" stroke="#448cff" fill="url(#svg_20)"/>
  <ellipse id="svg_49" transform="rotate(107.305, 263.755, 33.1878)" ry="80.144105" rx="80.144105" cy="33.189099" cx="263.753505" stroke-width="0" stroke="#448cff" fill="url(#svg_20)"/>
  <ellipse opacity="0.75" id="svg_50" transform="rotate(107.305, 26.7539, 149.189)" ry="80.144105" rx="80.144105" cy="149.189099" cx="26.753505" stroke-width="0" stroke="#448cff" fill="url(#svg_20)"/>
  <ellipse id="svg_51" transform="rotate(107.305, 583.755, 351.188)" ry="80.144105" rx="80.144105" cy="351.189099" cx="583.753505" stroke-width="0" stroke="#448cff" fill="url(#svg_20)"/>
  <ellipse opacity="0.5" id="svg_52" ry="78.499996" rx="78.499996" cy="186.277787" cx="335.277772" stroke-width="0" stroke="#448cff" fill="url(#svg_2)"/>
  <ellipse id="svg_53" ry="78.499996" rx="78.499996" cy="0.277787" cx="357.277772" stroke-width="0" stroke="#448cff" fill="url(#svg_57)"/>
  <ellipse id="svg_54" ry="65.5" rx="65.5" cy="214.277777" cx="505.277773" stroke-width="0" stroke="#448cff" fill="url(#svg_7)"/>
  <ellipse id="svg_55" transform="rotate(107.305, 21.7548, 339.188)" ry="80.144105" rx="80.144105" cy="339.189099" cx="21.753505" stroke-width="0" stroke="#448cff" fill="url(#svg_20)"/>
  <ellipse id="svg_56" ry="65.5" rx="65.5" cy="321.277777" cx="374.277773" stroke-width="0" stroke="#448cff" fill="url(#svg_23)"/>
  <ellipse opacity="0.45" id="svg_58" ry="78.499996" rx="78.499996" cy="300.277787" cx="536.277772" stroke-width="0" stroke="#448cff" fill="url(#svg_57)"/>
  <text xml:space="preserve" text-anchor="middle" font-family="Sans-serif" font-size="21" id="svg_63" y="393.000005" x="267.50007" stroke-width="0" stroke="#448cff" fill="#000000">$NAME$</text>
  <text xml:space="preserve" text-anchor="middle" font-family="Sans-serif" font-size="21" id="svg_64" y="443.500011" x="267.500069" stroke-width="0" stroke="#448cff" fill="#000000">$ID$</text>
  <image preserveAspectRatio="xMidYMid" xlink:href="images/myparty/qrcode.png" id="svg_65" height="105" width="105" y="352" x="514"/>
  <text filter="url(#svg_66_blur)" id="svg_66" font-style="italic" xml:space="preserve" text-anchor="middle" font-family="Sans-serif" font-size="47" y="88.833339" x="309.083403" stroke-width="0" stroke="#448cff" fill="#ffffff">MyParty ticket spécial !!!</text>
  <text font-style="italic" xml:space="preserve" text-anchor="middle" font-family="Sans-serif" font-size="47" id="svg_62" y="86.833339" x="314.083403" stroke-width="0" stroke="#448cff" fill="#000000">MyParty ticket spécial !!!</text>
 </g>
</svg>
